<?xml version="1.0" standalone="no"?>
<!DOCTYPE svg PUBLIC "-//W3C//DTD SVG 1.1//EN" "http://www.w3.org/Graphics/SVG/1.1/DTD/svg11.dtd" >
<svg xmlns="http://www.w3.org/2000/svg" xmlns:xlink="http://www.w3.org/1999/xlink" version="1.1">
<metadata>
Created by FontForge 20170924 at Thu Feb 16 13:52:51 2006
 By www-data
Typeface (c) (your company). 2006. All Rights Reserved
</metadata>
<defs>
<font id="Bway" horiz-adv-x="1139" >
  <font-face 
    font-family="Bway"
    font-weight="400"
    font-stretch="normal"
    units-per-em="2048"
    panose-1="2 0 0 0 0 0 0 0 0 0"
    ascent="1638"
    descent="-410"
    x-height="1298"
    cap-height="1791"
    bbox="-462 -122 1539 2431"
    underline-thickness="150"
    underline-position="-292"
    unicode-range="U+0020-F005"
  />
<missing-glyph horiz-adv-x="1536" 
d="M256 0v1280h1024v-1280h-1024zM288 32h960v1216h-960v-1216z" />
    <glyph glyph-name=".notdef" horiz-adv-x="1536" 
d="M256 0v1280h1024v-1280h-1024zM288 32h960v1216h-960v-1216z" />
    <glyph glyph-name=".null" horiz-adv-x="0" 
 />
    <glyph glyph-name="nonmarkingreturn" horiz-adv-x="569" 
 />
    <glyph glyph-name="space" unicode=" " horiz-adv-x="569" 
 />
    <glyph glyph-name="space" unicode="&#xa0;" horiz-adv-x="569" 
 />
    <glyph glyph-name="exclam" unicode="!" horiz-adv-x="569" 
 />
    <glyph glyph-name="quotedbl" unicode="&#x22;" horiz-adv-x="727" 
 />
    <glyph glyph-name="numbersign" unicode="#" 
 />
    <glyph glyph-name="dollar" unicode="$" 
 />
    <glyph glyph-name="percent" unicode="%" horiz-adv-x="1821" 
 />
    <glyph glyph-name="ampersand" unicode="&#x26;" horiz-adv-x="1366" 
 />
    <glyph glyph-name="quotesingle" unicode="'" horiz-adv-x="391" 
 />
    <glyph glyph-name="parenleft" unicode="(" horiz-adv-x="682" 
 />
    <glyph glyph-name="parenright" unicode=")" horiz-adv-x="682" 
 />
    <glyph glyph-name="asterisk" unicode="*" horiz-adv-x="797" 
 />
    <glyph glyph-name="plus" unicode="+" horiz-adv-x="1196" 
 />
    <glyph glyph-name="comma" unicode="," horiz-adv-x="569" 
 />
    <glyph glyph-name="hyphen" unicode="-" horiz-adv-x="682" 
 />
    <glyph glyph-name="hyphen" unicode="&#xad;" horiz-adv-x="682" 
 />
    <glyph glyph-name="period" unicode="." horiz-adv-x="233" 
d="M178 280l-70 -55l-73 -96l143 -56l33 75l53 63z" />
    <glyph glyph-name="slash" unicode="/" horiz-adv-x="569" 
 />
    <glyph glyph-name="zero" unicode="0" 
 />
    <glyph glyph-name="one" unicode="1" 
 />
    <glyph glyph-name="two" unicode="2" 
 />
    <glyph glyph-name="three" unicode="3" 
 />
    <glyph glyph-name="four" unicode="4" 
 />
    <glyph glyph-name="five" unicode="5" 
 />
    <glyph glyph-name="six" unicode="6" 
 />
    <glyph glyph-name="seven" unicode="7" 
 />
    <glyph glyph-name="eight" unicode="8" 
 />
    <glyph glyph-name="nine" unicode="9" 
 />
    <glyph glyph-name="colon" unicode=":" horiz-adv-x="512" 
d="M1235 2431q58 -5 58 -51q0 -24 -38 -48l3 -3l-12 -77l3 -3l-6 -30l3 -3v-3l-3 -3l3 -3v-3l-3 -3l3 -3v-3l-3 -3l3 -3v-3l-3 -24l3 -9h-3l3 -3v-6l-3 -3l3 -3v-12q0 -46 24 -140h-3l38 -135h-3q20 -56 20 -69v-2l-99 -9v3l-15 -6l-3 3h-3l-17 -6v3l-15 -6l-3 3h-3l-17 -6
v3l-15 -6l-3 3h-3l-26 -9v3l-67 -18v3q-85 -30 -108 -33q-189 -67 -357 -165q-87 -65 -146 -122q-104 -111 -114 -158h-3q-6 0 -8 17h2q-44 192 -96 347q-36 89 -175 260h-6v3l-3 -3h-3q-23 6 -35 27v21q0 16 23 33h30q26 -15 26 -33l-3 -30l73 -72q103 -81 196 -95l3 3
l14 -3h3q116 0 161 89q32 43 55 144l9 60l-3 3l3 14v24l-3 15h3l-3 3v3l3 3v3l-3 9h3l-3 3v27q-5 57 -23 57q-15 0 -32 45v12q0 43 41 62h3l3 -3l2 3h15q45 0 59 -62q0 -12 -18 -48q37 -62 96 -135q91 -93 141 -101q0 -5 29 -9v-3l3 3h3l35 -6q77 12 111 42q73 61 102 134
q41 80 67 212q-10 0 -23 27l3 3l-3 15v3q20 45 53 45zM1337 1765q11 -3 67 -75v-6l-41 -6v3l-44 -9l-3 3h-3l-17 -6v3l-21 -6v3l-64 -15v3q-191 -39 -400 -126q-192 -88 -260 -161q-79 -65 -167 -176l-38 -63h-6l-26 96q102 165 295 304q85 52 275 129l149 48l3 -3h3l41 15
l3 -3h3l111 27v-3l20 6v-3l76 15v-3l17 6v-3z" />
    <glyph glyph-name="semicolon" unicode=";" horiz-adv-x="441" 
d="M-239 2386v-3l-3 -15l3 -3q-13 -27 -24 -27q26 -132 67 -212q30 -73 103 -134q33 -30 110 -42l35 6h3l3 -3v3q29 4 29 9q50 8 141 101q59 73 96 135q-18 36 -18 48q14 62 59 62h15l2 -3l3 3h3q41 -19 41 -62v-12q-17 -45 -32 -45q-18 0 -23 -57v-27l-3 -3h3l-3 -9v-3
l3 -3v-3l-3 -3h3l-3 -15v-24l3 -14l-3 -3l9 -60q23 -101 55 -144q45 -89 161 -89h3l14 3l3 -3q93 14 196 95l73 72l-3 30q0 18 26 33h30q23 -17 23 -33v-21q-12 -21 -35 -27h-3l-3 3v-3h-6q-139 -171 -175 -260q-52 -155 -96 -347h2q-2 -17 -8 -17h-3q-10 47 -114 158
q-59 57 -146 122q-168 98 -357 165q-23 3 -107 33v-3l-68 18v-3l-26 9h-3l-3 -3l-14 6v-3l-18 6h-3l-3 -3l-14 6v-3l-18 6h-3l-3 -3l-14 6v-3l-100 9v2q0 13 21 69h-3l38 135h-3q23 94 23 140v12l3 3l-3 3v6l3 3h-3l3 9l-3 24v3l3 3l-3 3v3l3 3l-3 3v3l3 3l-3 3v3l3 3l-6 30
l3 3l-11 77l3 3q-38 24 -38 48q0 46 58 51q32 0 53 -45zM-368 1759v3l18 -6v3l76 -15v3l20 -6v3l111 -27h3l3 3l41 -15h3l3 3l148 -48q190 -77 275 -129q193 -139 295 -304l-26 -96h-6l-38 63q-88 111 -167 176q-68 73 -260 161q-208 87 -400 126v-3l-64 15v-3l-20 6v-3
l-18 6h-3l-3 -3l-44 9v-3l-41 6v6q57 72 68 75z" />
    <glyph glyph-name="semicolon" unicode="&#x37e;" horiz-adv-x="441" 
d="M-239 2386v-3l-3 -15l3 -3q-13 -27 -24 -27q26 -132 67 -212q30 -73 103 -134q33 -30 110 -42l35 6h3l3 -3v3q29 4 29 9q50 8 141 101q59 73 96 135q-18 36 -18 48q14 62 59 62h15l2 -3l3 3h3q41 -19 41 -62v-12q-17 -45 -32 -45q-18 0 -23 -57v-27l-3 -3h3l-3 -9v-3
l3 -3v-3l-3 -3h3l-3 -15v-24l3 -14l-3 -3l9 -60q23 -101 55 -144q45 -89 161 -89h3l14 3l3 -3q93 14 196 95l73 72l-3 30q0 18 26 33h30q23 -17 23 -33v-21q-12 -21 -35 -27h-3l-3 3v-3h-6q-139 -171 -175 -260q-52 -155 -96 -347h2q-2 -17 -8 -17h-3q-10 47 -114 158
q-59 57 -146 122q-168 98 -357 165q-23 3 -107 33v-3l-68 18v-3l-26 9h-3l-3 -3l-14 6v-3l-18 6h-3l-3 -3l-14 6v-3l-18 6h-3l-3 -3l-14 6v-3l-100 9v2q0 13 21 69h-3l38 135h-3q23 94 23 140v12l3 3l-3 3v6l3 3h-3l3 9l-3 24v3l3 3l-3 3v3l3 3l-3 3v3l3 3l-3 3v3l3 3l-6 30
l3 3l-11 77l3 3q-38 24 -38 48q0 46 58 51q32 0 53 -45zM-368 1759v3l18 -6v3l76 -15v3l20 -6v3l111 -27h3l3 3l41 -15h3l3 3l148 -48q190 -77 275 -129q193 -139 295 -304l-26 -96h-6l-38 63q-88 111 -167 176q-68 73 -260 161q-208 87 -400 126v-3l-64 15v-3l-20 6v-3
l-18 6h-3l-3 -3l-44 9v-3l-41 6v6q57 72 68 75z" />
    <glyph glyph-name="less" unicode="&#x3c;" horiz-adv-x="1196" 
 />
    <glyph glyph-name="equal" unicode="=" horiz-adv-x="1196" 
 />
    <glyph glyph-name="greater" unicode="&#x3e;" horiz-adv-x="1196" 
 />
    <glyph glyph-name="question" unicode="?" 
 />
    <glyph glyph-name="at" unicode="@" horiz-adv-x="2079" 
 />
    <glyph glyph-name="A" unicode="A" horiz-adv-x="877" 
d="M107 1459h422l315 31l53 -62l-53 -493h132v-31l-132 -154v-155l27 -185l-27 -31v-31l106 -277v-31l-185 -31q-176 0 -210 648v31h-26q-93 0 -369 -278l-421 771v62l106 124l105 -31zM213 1243l158 -401q184 21 184 62l26 339h-368z" />
    <glyph glyph-name="B" unicode="B" horiz-adv-x="1091" 
d="M689 1826q84 -738 160 -738l161 78q176 -523 353 -739v-116l-803 -311l-32 39v194l32 156q-78 277 -673 893l-33 39q115 155 289 155zM207 1399v-39q321 -337 321 -428l32 39h32l-96 505l32 117h-32q-194 -194 -289 -194zM625 816q128 -267 128 -466v-156l321 117v78
q-225 356 -225 543q-107 0 -224 -116z" />
    <glyph glyph-name="C" unicode="C" horiz-adv-x="979" 
d="M365 1797l116 -247l115 106l29 -35q-35 -846 -231 -846q-61 52 -202 705h-29l-87 -212q174 -193 174 -422l-116 -458h29q304 -141 636 -141l231 35q0 282 -231 282h-58l-87 -71l-58 71q183 187 347 246q249 -83 318 -281v-212q-222 -317 -694 -317h-28q-220 0 -665 176
l116 564q0 145 -174 423q471 634 549 634z" />
    <glyph glyph-name="D" unicode="D" horiz-adv-x="941" 
d="M407 1823q234 -684 644 -684l293 -265q-96 -161 -995 -570l-468 -304l-30 38v760l147 151l58 -75v-418q7 -190 58 -190q409 291 879 494v38q-647 303 -761 645h-30v-38q176 -396 176 -607v-152q-81 -190 -234 -190v228q0 145 -205 721z" />
    <glyph glyph-name="E" unicode="E" horiz-adv-x="879" 
d="M649 1775h22q248 -207 291 -326q-179 -507 -313 -507v-73h112v-72q0 -138 -448 -181v-36l45 -363h246l112 37v36q-89 0 -134 145q0 93 179 181q53 -141 313 -326v-36q0 -173 -917 -254q-23 580 -157 580v36l224 181q0 99 134 362l157 544zM627 1485l-179 -471v-72h111
q0 90 179 398z" />
    <glyph glyph-name="F" unicode="F" horiz-adv-x="1070" 
d="M1314 1845l30 -38v-39q-359 -519 -359 -730v-39l60 -115l-209 -154l59 -77l299 77l30 -38v-39l-269 -192l60 -269l-269 -192h-60q-48 0 -119 269h-30l-180 -77v77l120 192q-162 380 -658 538v39q0 204 867 500q492 307 628 307zM387 1153l269 -230l210 461v38
q-479 -192 -479 -269z" />
    <glyph glyph-name="G" unicode="G" horiz-adv-x="1297" 
d="M-8 1791q1021 -289 1024 -430q-195 -371 -595 -573l-33 36v36q0 58 331 322v36l-496 179l198 -824h66q0 287 992 287v-72q-194 -296 -992 -788h-132q-140 61 -396 1325l-133 215v36zM487 501l-33 36v-71l66 -179l430 214v72q-179 -72 -463 -72z" />
    <glyph glyph-name="H" unicode="H" horiz-adv-x="1226" 
d="M660 1816q130 -407 130 -794v-38l98 -38l-33 -151l33 -303h32l195 113q116 -264 325 -264v-76l-130 -151h-32l-260 75q0 -111 -130 -189h-98q-65 0 -227 795l-97 -76l97 -303l-195 -189q-47 0 -162 454l-163 -38h-64v38q60 137 194 189l-32 152h-65l-130 -114h-65l-65 76
q227 138 227 227l-32 151q49 151 97 151h33q105 -52 260 -567h162l-65 757z" />
    <glyph glyph-name="I" unicode="I" horiz-adv-x="904" 
d="M981 1791l23 -103l-114 -758l-23 -34h-68l-46 68v241l46 345q-480 -223 -480 -276l92 -137v-138q-23 -103 -137 -103h-23q0 150 -251 413q0 153 593 275zM639 1240h23l68 -758l-137 -138q-58 0 -137 724v34q0 90 183 138zM1004 896q5 -155 137 -620q0 -104 -205 -173
h-183l-593 -103v34l91 379l-23 207q84 103 160 103l23 -34v-138l-46 -310q103 69 297 69h228l-23 241v138z" />
    <glyph glyph-name="J" unicode="J" horiz-adv-x="765" 
d="M746 1781l48 -74l-24 -223l72 -185v-75l-120 -37q-119 42 -119 297l24 37h-48l-478 -371q74 0 143 -185q-24 -112 -143 -112l-311 334q102 95 526 223zM507 1336q233 -520 478 -520v-111q-48 0 -454 -668l-24 -37h-24q0 306 -143 631v37l48 74h71q66 0 144 -371h24
l191 297q-430 215 -430 556q0 85 119 112z" />
    <glyph glyph-name="K" unicode="K" horiz-adv-x="1098" 
d="M545 1800l30 -36l-148 -468h30l325 324h89l-30 -612v-360q6 -360 60 -360l177 108v36l-177 324v72q0 194 118 252h30q0 -263 266 -612v-72q0 -94 -474 -288l-88 -108l-60 72v1296q-296 -214 -296 -324l89 -288l-148 -144l-237 648h-29l-89 -144l-29 -36h-59l-30 36h-30
l148 216l-29 252l118 108q113 -62 207 -396h59q109 447 207 504z" />
    <glyph glyph-name="L" unicode="L" horiz-adv-x="829" 
d="M560 1852l23 -39v-38q-84 -504 -410 -1196v-39h319l-23 39v116q0 192 205 424l22 -39l-22 -154q0 -415 341 -617v-116l-182 -193q-328 270 -864 270h-46l-46 77q410 637 410 1003h-23l-91 -38h-68v38q3 85 227 232q82 270 228 270z" />
    <glyph glyph-name="M" unicode="M" horiz-adv-x="1206" 
d="M782 1839h33q104 0 232 -1067q66 0 66 111l33 37h99q0 -210 198 -515q0 -98 -562 -405l-33 110l-99 993h-33q0 -342 -198 -478h-33q-66 0 -66 111h-33v-111l33 -220l-231 -184q-54 0 -166 699l-264 331l133 183l627 -331q136 736 264 736zM1080 478v-184h33l33 37h33z
" />
    <glyph glyph-name="N" unicode="N" horiz-adv-x="1322" 
d="M1383 1800h61l-215 -720l-92 -36v-36l276 -828q-122 -74 -122 -180q-190 0 -676 540h-31l31 -360v-36l-153 -144h-31l-123 144v72l31 36q0 272 -430 900l123 216q290 -125 890 -684v72l-338 684q0 247 799 360zM861 1440q162 -354 215 -360h30l92 468z" />
    <glyph glyph-name="O" unicode="O" horiz-adv-x="1178" 
d="M848 1820q126 -127 190 -720l348 -607v-38q0 -160 -1171 -455l-32 38q95 250 95 531v38q0 444 -475 720v38q265 176 1045 455zM278 1441v-38q285 -338 285 -720l-63 -455l538 151v76q-285 374 -380 1024l-63 76z" />
    <glyph glyph-name="P" unicode="P" horiz-adv-x="1094" 
d="M797 1845l288 -627l288 -295q-120 -221 -448 -406l96 -332l-192 -185q-154 202 -287 738l-32 37h-32v-37l32 -37v-37l-192 -184h-64q0 120 -480 553v37q81 161 544 332zM158 1070l288 -221l-32 37v110l160 185q67 -14 319 -480q128 55 128 111v37q-216 0 -352 664z" />
    <glyph glyph-name="Q" unicode="Q" horiz-adv-x="1210" 
d="M-40 1800l365 -75l963 75l33 -37v-38l-66 -300q0 -326 166 -937v-38q-100 0 -100 -75q133 -169 133 -262h-33l-199 -113q-233 188 -233 300l-730 -150l-33 38q132 257 132 450v225q-66 375 -132 375q0 -199 -232 -413l-34 38h-33l33 262v75q0 216 -166 375zM856 1538
h-332l-66 -75q110 0 166 -563l100 75h33l232 -225h33l-33 188v262l33 375zM558 450l199 75q-50 150 -100 150q-66 0 -99 -225z" />
    <glyph glyph-name="R" unicode="R" horiz-adv-x="1178" 
d="M537 1848q50 0 116 -471l144 -254l173 73l29 -36l-58 -508v-471l202 73v72q-115 217 -115 435v36h29q86 -59 288 -471q0 -101 -519 -326l-58 362l58 616q-155 0 -202 -145v-36q86 -132 86 -253l-144 -73l-144 254l-29 -37h-86l-58 73l115 145l-29 36h-28l-116 -109
l-317 363v36l461 326zM134 1268l28 -108h29l144 144q65 0 174 -326h28q58 0 58 109l-173 435z" />
    <glyph glyph-name="S" unicode="S" horiz-adv-x="977" 
d="M140 1781l572 -37l27 37l27 -37q-146 -594 -217 -594l-137 -74l-27 37v37l82 371v112h-218l27 -38v-185l-82 -445h28l653 148q96 -204 409 -594l-1226 -519l-27 37v37q381 390 381 631h-27l-163 -37v74l299 111v38h-54l-517 -112l-28 37v37l136 520l-54 297zM576 928v-37
q81 0 81 -75q0 -134 -190 -519h27l518 260q-105 0 -355 408z" />
    <glyph glyph-name="T" unicode="T" horiz-adv-x="1053" 
d="M1010 1816l28 -36h29l-29 -356v-285l58 -284l-86 -72h-144q-63 0 -86 321l29 356q-390 -285 -601 -285q257 -316 257 -498q0 -72 -200 -143q-53 226 -401 570v35q0 196 630 321q229 107 516 356zM666 1246l229 -854l401 107v-36q0 -107 -859 -463v71q86 178 200 178
l-172 819q115 178 201 178z" />
    <glyph glyph-name="U" unicode="U" horiz-adv-x="1066" 
d="M882 1848q67 -629 556 -1651v-40q-185 -64 -185 -118l-526 40h-93l-680 -79v39q216 413 216 826q-54 241 -216 472v78l247 79q248 -265 248 -511v-275q0 -226 -124 -433v-39l216 39h402v40q-432 652 -432 1415q177 118 371 118z" />
    <glyph glyph-name="V" unicode="V" horiz-adv-x="1111" 
d="M1265 1794l29 -35h28q-311 -449 -311 -563l28 -106l-226 -175l85 -528h-28l28 -35v-141q-149 -211 -283 -211q-67 217 -452 633q-13 -72 -142 -141l-84 36l28 176v35q0 117 -85 246v35q85 176 198 176l452 -457v35q0 209 -226 668q0 211 961 352zM643 1442l85 -281h57
q0 114 169 316v36z" />
    <glyph glyph-name="W" unicode="W" horiz-adv-x="1235" 
d="M1506 1829l33 -37v-38q-264 -450 -264 -597l66 -112l-265 -112l100 -784q-67 0 -67 -112l-33 -37h-33q-363 524 -363 672h-66q0 -268 -132 -336q-79 22 -331 560h-33q0 -195 -164 -299h-100v112q15 77 165 150v74l-32 224l32 112h66q298 -264 298 -373h66l-33 37v112
q0 201 132 261q267 -264 297 -447h33v37l-66 672q77 112 694 261zM1010 1456l33 -262v-74h66l166 410h-33z" />
    <glyph glyph-name="X" unicode="X" horiz-adv-x="1249" 
d="M1116 1807l216 -434v-108l-124 -145l-185 289l-246 -469q28 -96 493 -506q92 325 154 325v-36q-43 -651 -185 -651l-616 579q-271 -536 -432 -651h-31q-68 0 -92 325q-154 47 -154 109q43 180 216 180q61 0 61 -108l31 -145l31 -36h61l247 434l-370 470q0 -145 -154 -253
h-92l-62 72v72q0 101 247 145l-31 289q46 145 92 145q364 -602 493 -687h31z" />
    <glyph glyph-name="Y" unicode="Y" horiz-adv-x="1043" 
d="M899 1794h30l-30 -191l270 -992l-180 -153q-157 115 -360 115v-77l30 -267h120l450 -38v-76q-812 -115 -1380 -115l-30 38v38l120 115h510l-30 382v38h-120l-360 -38v114l240 267l60 153l-30 38q0 115 -210 115l-30 38v38q62 153 150 153q270 -86 270 -191
q0 -171 -180 -458l240 -38l30 38l210 -38h180l-150 687q0 143 180 305z" />
    <glyph glyph-name="Z" unicode="Z" horiz-adv-x="1086" 
d="M1047 1804l31 -36q-351 -894 -715 -1371v-36l467 -36h31v36q-125 234 -125 397q110 288 249 288v-36l-31 -216v-36q48 -173 435 -578v-36q-64 -144 -155 -144l-684 72h-497l-62 72v72q696 657 807 1299l-466 -180q187 -219 187 -361q-62 0 -62 -108l-31 -36h-94
q0 162 -497 541q61 165 125 180h217q186 0 870 253z" />
    <glyph glyph-name="bracketleft" unicode="[" horiz-adv-x="569" 
 />
    <glyph glyph-name="backslash" unicode="\" horiz-adv-x="569" 
 />
    <glyph glyph-name="bracketright" unicode="]" horiz-adv-x="569" 
 />
    <glyph glyph-name="asciicircum" unicode="^" horiz-adv-x="961" 
 />
    <glyph glyph-name="underscore" unicode="_" 
 />
    <glyph glyph-name="grave" unicode="`" horiz-adv-x="682" 
 />
    <glyph glyph-name="a" unicode="a" horiz-adv-x="656" 
d="M622 1231q47 0 93 -436q140 -274 140 -359q0 -201 -373 -410l-93 -26h-163q-140 57 -140 256q0 220 489 385l-69 385v25h-24l-233 -128v-51l94 -154v-26l-70 -128h-47q-326 280 -326 359q35 103 70 103h47l93 -77h23zM249 359q0 -160 163 -205q277 89 280 154
q-68 154 -233 154q-210 -48 -210 -103z" />
    <glyph glyph-name="b" unicode="b" horiz-adv-x="933" 
d="M339 1682l460 -561v-35l-115 -175h29l516 210l29 -35v-35q-172 -700 -603 -1016l-172 -35l-57 210l57 175q-39 168 -172 246l28 105h-28l-144 -105h-29l-344 280q373 331 373 421q0 219 172 350zM311 1367l-287 -386l143 -70v35q8 175 86 175h29l230 -245l114 140
q-66 0 -315 351zM598 736v-70h28l87 35v-35l-87 -351v-140h29q191 0 402 701v35z" />
    <glyph glyph-name="c" unicode="c" horiz-adv-x="1024" 
d="M758 1650q56 0 56 -132l112 -33q0 -594 -309 -594q-28 561 -84 561q-224 -86 -224 -132q224 -282 337 -1023l280 132v33l-140 198v66l112 165h56l337 -396q-168 -169 -702 -363q-10 -72 -224 -132q0 654 -365 1221v66q0 135 758 363z" />
    <glyph glyph-name="d" unicode="d" horiz-adv-x="910" 
d="M290 1727h61q0 -242 793 -661q91 0 91 -74v-73q0 -198 -884 -809l-92 -110h-91l-61 73v74l152 257q-38 175 -488 551q0 107 366 515zM168 1323l-61 -147v-74q396 -286 396 -624q254 147 366 294q-449 230 -640 551h-61z" />
    <glyph glyph-name="e" unicode="e" horiz-adv-x="951" 
d="M289 1586l525 -809l50 -124l-200 -155q-66 73 -475 124l-50 -187q195 0 725 -155v31q16 498 150 498l75 -94l-25 -31l75 -560l-250 -124q-495 280 -1025 280v31q225 619 225 902v186l-25 32v31q134 124 225 124zM289 1088l-50 -279l275 -63v31q-78 201 -225 311z" />
    <glyph glyph-name="f" unicode="f" horiz-adv-x="765" 
d="M980 1743l25 -36v-37q-298 -490 -298 -690v-36l50 -109l-174 -145l50 -73l248 73l25 -36v-37l-224 -181l50 -254l-223 -182h-50q-40 0 -99 254h-25l-149 -72v72l99 182q-134 358 -546 508v36q0 194 720 473q408 290 521 290zM211 1089l223 -217l174 435v37
q-397 -182 -397 -255z" />
    <glyph glyph-name="g" unicode="g" horiz-adv-x="1025" 
d="M435 1406q195 -468 742 -886q-718 -557 -1044 -642h-55q-55 0 -55 92q90 263 440 550v-31q-275 -375 -275 -458h28q495 195 741 428q-99 0 -412 336q-307 -245 -439 -245q-76 642 -220 642v61q0 135 549 153zM161 1253v-30l110 -489q192 72 192 122q0 133 -192 397h-110z
" />
    <glyph glyph-name="h" unicode="h" horiz-adv-x="1057" 
d="M209 1672h26l291 -418q0 62 635 139l26 -34l-53 -871l27 -209v-209l-53 -70h-106l-79 105v870l26 175h-26q-212 -22 -212 -105l106 -488q-112 -139 -212 -139q-317 566 -317 662h-53q-172 -174 -264 -174l-53 69q0 167 185 175v174l-79 139q0 63 185 209z" />
    <glyph glyph-name="i" unicode="i" horiz-adv-x="784" 
d="M682 1692q10 -76 177 -163v-130q-75 -158 -355 -455q75 0 133 -554l-88 -97q-53 0 -111 553l44 65v33h-22q-197 -163 -310 -163h-45q-120 0 -177 163v65q0 492 754 683zM39 1074q41 -163 177 -163q218 0 510 423v98l-332 97q-355 -185 -355 -455zM793 716l199 -488v-33
q-36 -130 -155 -130h-310l-333 -65v65q89 174 89 293v130l-45 98l67 97h44q52 0 67 -227l-89 -261v-32l288 65h89l111 -33v33l-111 325q43 149 89 163z" />
    <glyph glyph-name="j" unicode="j" horiz-adv-x="691" 
d="M639 1711l45 -71l-22 -214l68 -178v-72l-114 -35q-114 40 -114 285l23 35h-46l-456 -356q71 0 137 -178q-23 -107 -137 -107l-297 321q97 90 502 214zM411 1283q222 -499 456 -499v-107q-46 0 -434 -641l-22 -36h-23q0 294 -137 606v36l46 71h68q62 0 137 -357h23
l182 286q-410 206 -410 534q0 82 114 107z" />
    <glyph glyph-name="k" unicode="k" horiz-adv-x="885" 
d="M553 1605l29 -32l-144 -417h29l317 289h86l-28 -546v-321q5 -321 57 -321l173 96v32l-173 289v64q0 173 116 225h28q0 -235 260 -546v-64q0 -84 -461 -257l-87 -96l-58 64v1156q-288 -191 -288 -289l86 -257l-144 -128l-230 578h-29l-87 -129l-28 -32h-58l-29 32h-29
l144 193l-28 224l115 97q110 -56 202 -353h57q107 398 202 449z" />
    <glyph glyph-name="l" unicode="l" horiz-adv-x="831" 
d="M633 1602l21 -33v-34q-77 -436 -380 -1037v-34h296l-21 34v100q0 168 190 368l21 -33l-21 -134q0 -360 316 -535v-101l-169 -167q-304 234 -802 234h-42l-42 67q380 553 380 870h-21l-85 -33h-63v33q3 74 211 201q76 234 211 234z" />
    <glyph glyph-name="m" unicode="m" horiz-adv-x="1169" 
d="M754 1628h30q95 0 213 -944q60 0 60 97l31 33h91q0 -185 182 -456q0 -86 -516 -358l-30 98l-91 879h-31q0 -303 -182 -423h-30q-61 0 -61 97h-30v-97l30 -196l-212 -163q-49 0 -152 619l-243 293l122 163l576 -293q126 651 243 651zM1027 423v-163h30l31 33h30z" />
    <glyph glyph-name="n" unicode="n" horiz-adv-x="981" 
d="M1032 1637l28 -34q-305 -617 -305 -1091l28 -273l139 34v34l-111 239q56 273 111 273q45 0 110 -239l194 -205l-554 -375h-27q-111 46 -111 307v409l28 34v34h-28l-138 -136h-28q-272 458 -526 682v34q45 137 194 137l55 -69l139 137l110 -34zM396 1364l166 -511h27
q0 187 194 545v34z" />
    <glyph glyph-name="o" unicode="o" horiz-adv-x="931" 
d="M25 1551l132 -32h186l371 32q203 0 265 -614l107 -452q-207 -226 -531 -226l-557 -259l-26 32q158 447 158 711q-92 0 -212 711zM369 1293l26 -162v-129q0 -368 -132 -679h54l477 162q-166 808 -212 808h-213zM502 1034q80 -32 80 -194l-53 -64h-27l-53 64v129z" />
    <glyph glyph-name="p" unicode="p" horiz-adv-x="981" 
d="M440 1775q43 0 210 -426q174 -207 628 -461v-36l-389 -355l30 -35v-355h209v-71l-209 -36h-179l-150 36v71l150 35q0 290 -389 675v35l119 142h30q86 -31 359 -390l150 142q-279 86 -628 568l-270 -462q312 -203 359 -319l-149 -178q0 107 -479 284v36q509 575 509 1029z
" />
    <glyph glyph-name="q" unicode="q" horiz-adv-x="987" 
d="M-12 1544l306 -64l809 64l27 -32v-32l-55 -258q0 -280 139 -804v-32q-84 0 -84 -64q112 -145 112 -225h-28l-167 -97q-195 161 -195 257l-614 -128l-28 32q112 220 112 386v193q-56 322 -112 322q0 -171 -195 -354l-27 32h-28l28 225v64q0 185 -140 322zM740 1319h-279
l-55 -64q92 0 139 -483l84 64h28l195 -193h28l-28 161v225l28 322zM489 386l168 64q-42 129 -84 129q-56 0 -84 -193z" />
    <glyph glyph-name="r" unicode="r" horiz-adv-x="795" 
d="M83 1602l331 -64h83l41 -64l-82 -289l248 417q37 -78 62 -833q42 0 42 128l20 32h62v-64q0 -208 104 -609q-135 -208 -311 -256l-20 32v32l-42 1218l-145 -225v-64q125 -278 125 -480l-83 -96l-166 416l-62 -32l-21 32l21 96q0 81 -290 481v32q40 146 83 160zM331 1314
v-32l42 -64h20v96h-62z" />
    <glyph glyph-name="s" unicode="s" horiz-adv-x="1024" 
d="M242 1560l243 -162l121 32v-32l-121 -585h24q298 97 557 97l97 -97v-33q-496 -780 -775 -780h-49q-97 53 -97 228v32q0 139 218 423l-436 -163l-24 33l73 552v325q39 130 169 130zM291 1300l-24 -32v-65l-25 -488h73v195l48 358zM436 293v-65l73 -98q460 509 460 618
l-24 32h-121q-285 0 -388 -487z" />
    <glyph glyph-name="t" unicode="t" horiz-adv-x="800" 
d="M814 1653l23 -32h23l-23 -325v-259l46 -259l-69 -65h-115q-51 0 -69 292l23 324q-314 -259 -484 -259q207 -288 207 -454q0 -65 -161 -130q-42 206 -322 519v32q0 178 506 292q185 97 415 324zM538 1134l184 -777l322 97v-33q0 -97 -691 -421v65q69 162 162 162l-139 745
q93 162 162 162z" />
    <glyph glyph-name="u" unicode="u" horiz-adv-x="835" 
d="M149 1270h72q142 -122 142 -359v-248l-119 -442h24l167 28l166 -28v28q-95 410 -95 911q123 138 214 138q40 -36 214 -801l71 -248v-111q-24 -83 -143 -83l-95 28l-166 -83l-166 28l-428 -28h-95l-48 55q238 332 238 691q0 217 -95 359v27z" />
    <glyph glyph-name="v" unicode="v" horiz-adv-x="813" 
d="M1010 1672l23 -33h23q-251 -418 -251 -524l23 -99l-182 -164l68 -491h-23l23 -33v-131q-120 -197 -228 -197q-54 203 -365 590q-10 -67 -114 -131l-68 33l23 164v32q0 110 -69 230v33q69 164 160 164l364 -427v33q0 195 -182 623q0 197 775 328zM509 1344l68 -262h46
q0 106 137 295v33z" />
    <glyph glyph-name="w" unicode="w" horiz-adv-x="1201" 
d="M1364 1624l29 -33v-33q-236 -401 -236 -531l59 -99l-236 -99l89 -696q-59 0 -59 -100l-30 -33h-29q-324 465 -324 597h-59q0 -239 -118 -299q-71 19 -295 497h-29q0 -173 -147 -265h-89v100q13 68 147 132v67l-29 198l29 100h59q266 -234 266 -332h58l-29 34v99
q0 178 118 232q238 -235 265 -398h30v33l-59 597q68 99 619 232zM921 1293l30 -232v-67h59l147 365h-29z" />
    <glyph glyph-name="x" unicode="x" horiz-adv-x="878" 
d="M884 1378l181 -331v-82l-103 -111l-155 221l-206 -358q24 -73 412 -386q77 248 129 248v-28q-36 -496 -155 -496l-515 441q-226 -408 -360 -496h-26q-57 0 -77 248q-129 35 -129 83q36 138 180 138q52 0 52 -83l25 -110l26 -28h52l206 331l-309 358q0 -110 -129 -193h-77
l-52 55v55q0 77 206 111l-26 220q39 110 78 110q304 -459 412 -523h26z" />
    <glyph glyph-name="y" unicode="y" horiz-adv-x="851" 
d="M285 1788q120 -125 292 -670q336 -491 559 -559v-75q-379 -484 -638 -484h-133q-107 61 -107 261v112q0 221 160 372l26 -37l-53 -298q27 -224 80 -224h106l346 187v74q-115 0 -452 447q-327 -251 -532 -261h-79l-54 75q74 9 160 335l-133 298l106 112q160 -149 160 -298
l-54 -335l293 111v112q0 135 -160 633z" />
    <glyph glyph-name="z" unicode="z" horiz-adv-x="875" 
d="M623 1752l60 -70q-61 -634 -475 -1297v-35l683 -175q237 40 237 175q-148 386 -415 386v-105l29 -35v-35l-89 -70l-89 105v35q0 192 178 315q535 -101 535 -526v-70q-177 -268 -327 -350h-327q-287 105 -505 105h-207v35q356 470 356 631v35q0 293 -386 350l-30 35v35
q58 160 119 176l119 -35q178 0 534 385zM297 1261l89 -175q66 0 119 351h-30z" />
    <glyph glyph-name="braceleft" unicode="{" horiz-adv-x="684" 
 />
    <glyph glyph-name="bar" unicode="|" horiz-adv-x="532" 
 />
    <glyph glyph-name="braceright" unicode="}" horiz-adv-x="684" 
 />
    <glyph glyph-name="asciitilde" unicode="~" horiz-adv-x="1196" 
 />
    <glyph glyph-name="Adieresis" unicode="&#xc4;" horiz-adv-x="1366" 
 />
    <glyph glyph-name="Aring" unicode="&#xc5;" horiz-adv-x="1366" 
 />
    <glyph glyph-name="Ccedilla" unicode="&#xc7;" horiz-adv-x="1479" 
 />
    <glyph glyph-name="Eacute" unicode="&#xc9;" horiz-adv-x="1366" 
 />
    <glyph glyph-name="Ntilde" unicode="&#xd1;" horiz-adv-x="1479" 
 />
    <glyph glyph-name="Odieresis" unicode="&#xd6;" horiz-adv-x="1593" 
 />
    <glyph glyph-name="Udieresis" unicode="&#xdc;" horiz-adv-x="1479" 
 />
    <glyph glyph-name="aacute" unicode="&#xe1;" 
 />
    <glyph glyph-name="agrave" unicode="&#xe0;" 
 />
    <glyph glyph-name="acircumflex" unicode="&#xe2;" 
 />
    <glyph glyph-name="adieresis" unicode="&#xe4;" 
 />
    <glyph glyph-name="atilde" unicode="&#xe3;" 
 />
    <glyph glyph-name="aring" unicode="&#xe5;" 
 />
    <glyph glyph-name="ccedilla" unicode="&#xe7;" horiz-adv-x="1024" 
 />
    <glyph glyph-name="eacute" unicode="&#xe9;" 
 />
    <glyph glyph-name="egrave" unicode="&#xe8;" 
 />
    <glyph glyph-name="ecircumflex" unicode="&#xea;" 
 />
    <glyph glyph-name="edieresis" unicode="&#xeb;" 
 />
    <glyph glyph-name="iacute" unicode="&#xed;" horiz-adv-x="569" 
 />
    <glyph glyph-name="igrave" unicode="&#xec;" horiz-adv-x="569" 
 />
    <glyph glyph-name="icircumflex" unicode="&#xee;" horiz-adv-x="569" 
 />
    <glyph glyph-name="idieresis" unicode="&#xef;" horiz-adv-x="569" 
 />
    <glyph glyph-name="ntilde" unicode="&#xf1;" 
 />
    <glyph glyph-name="oacute" unicode="&#xf3;" 
 />
    <glyph glyph-name="ograve" unicode="&#xf2;" 
 />
    <glyph glyph-name="ocircumflex" unicode="&#xf4;" 
 />
    <glyph glyph-name="odieresis" unicode="&#xf6;" 
 />
    <glyph glyph-name="otilde" unicode="&#xf5;" 
 />
    <glyph glyph-name="uacute" unicode="&#xfa;" 
d="M870 1503q63 -512 522 -1343v-32q-174 -52 -174 -96l-493 32h-87l-638 -64v32q203 336 203 672q-51 196 -203 383v64l232 64q232 -215 232 -416v-223q0 -184 -116 -352v-32l203 32h377v32q-406 530 -406 1151q166 96 348 96zM530 1325l-20 173l2 207l-213 -47l-8 -107
l-2 -124l-8 -200z" />
    <glyph glyph-name="ugrave" unicode="&#xf9;" 
 />
    <glyph glyph-name="ucircumflex" unicode="&#xfb;" 
 />
    <glyph glyph-name="udieresis" unicode="&#xfc;" 
 />
    <glyph glyph-name="dagger" unicode="&#x2020;" 
 />
    <glyph glyph-name="degree" unicode="&#xb0;" horiz-adv-x="819" 
 />
    <glyph glyph-name="cent" unicode="&#xa2;" 
 />
    <glyph glyph-name="sterling" unicode="&#xa3;" 
 />
    <glyph glyph-name="section" unicode="&#xa7;" 
 />
    <glyph glyph-name="bullet" unicode="&#x2022;" horiz-adv-x="717" 
 />
    <glyph glyph-name="paragraph" unicode="&#xb6;" horiz-adv-x="1100" 
 />
    <glyph glyph-name="germandbls" unicode="&#xdf;" horiz-adv-x="1251" 
 />
    <glyph glyph-name="registered" unicode="&#xae;" horiz-adv-x="1509" 
 />
    <glyph glyph-name="copyright" unicode="&#xa9;" horiz-adv-x="1509" 
 />
    <glyph glyph-name="trademark" unicode="&#x2122;" horiz-adv-x="2048" 
 />
    <glyph glyph-name="acute" unicode="&#xb4;" horiz-adv-x="682" 
 />
    <glyph glyph-name="dieresis" unicode="&#xa8;" horiz-adv-x="682" 
 />
    <glyph glyph-name="notequal" unicode="&#x2260;" horiz-adv-x="1124" 
 />
    <glyph glyph-name="AE" unicode="&#xc6;" horiz-adv-x="2048" 
 />
    <glyph glyph-name="Oslash" unicode="&#xd8;" horiz-adv-x="1593" 
 />
    <glyph glyph-name="infinity" unicode="&#x221e;" horiz-adv-x="1460" 
 />
    <glyph glyph-name="plusminus" unicode="&#xb1;" horiz-adv-x="1124" 
 />
    <glyph glyph-name="lessequal" unicode="&#x2264;" horiz-adv-x="1124" 
 />
    <glyph glyph-name="greaterequal" unicode="&#x2265;" horiz-adv-x="1124" 
 />
    <glyph glyph-name="yen" unicode="&#xa5;" 
 />
    <glyph glyph-name="mu" unicode="&#xb5;" horiz-adv-x="1180" 
 />
    <glyph glyph-name="partialdiff" unicode="&#x2202;" horiz-adv-x="1012" 
 />
    <glyph glyph-name="summation" unicode="&#x2211;" horiz-adv-x="1460" 
 />
    <glyph glyph-name="product" unicode="&#x220f;" horiz-adv-x="1686" 
 />
    <glyph glyph-name="glyph155" horiz-adv-x="1124" 
 />
    <glyph glyph-name="integral" unicode="&#x222b;" horiz-adv-x="561" 
 />
    <glyph glyph-name="ordfeminine" unicode="&#xaa;" horiz-adv-x="758" 
 />
    <glyph glyph-name="ordmasculine" unicode="&#xba;" horiz-adv-x="748" 
 />
    <glyph glyph-name="Omega" unicode="&#x2126;" horiz-adv-x="1573" 
 />
    <glyph glyph-name="ae" unicode="&#xe6;" horiz-adv-x="1821" 
 />
    <glyph glyph-name="oslash" unicode="&#xf8;" horiz-adv-x="1251" 
 />
    <glyph glyph-name="questiondown" unicode="&#xbf;" horiz-adv-x="1251" 
 />
    <glyph glyph-name="exclamdown" unicode="&#xa1;" horiz-adv-x="682" 
 />
    <glyph glyph-name="logicalnot" unicode="&#xac;" horiz-adv-x="1196" 
 />
    <glyph glyph-name="radical" unicode="&#x221a;" horiz-adv-x="1124" 
 />
    <glyph glyph-name="florin" unicode="&#x192;" 
 />
    <glyph glyph-name="approxequal" unicode="&#x2248;" horiz-adv-x="1124" 
 />
    <glyph glyph-name="Delta" unicode="&#x2206;" horiz-adv-x="1253" 
 />
    <glyph glyph-name="guillemotleft" unicode="&#xab;" 
 />
    <glyph glyph-name="guillemotright" unicode="&#xbb;" 
 />
    <glyph glyph-name="ellipsis" unicode="&#x2026;" horiz-adv-x="2048" 
 />
    <glyph glyph-name="Agrave" unicode="&#xc0;" horiz-adv-x="1366" 
 />
    <glyph glyph-name="Atilde" unicode="&#xc3;" horiz-adv-x="1366" 
 />
    <glyph glyph-name="Otilde" unicode="&#xd5;" horiz-adv-x="1593" 
 />
    <glyph glyph-name="OE" unicode="&#x152;" horiz-adv-x="2048" 
 />
    <glyph glyph-name="oe" unicode="&#x153;" horiz-adv-x="1933" 
 />
    <glyph glyph-name="endash" unicode="&#x2013;" 
 />
    <glyph glyph-name="emdash" unicode="&#x2014;" horiz-adv-x="2048" 
 />
    <glyph glyph-name="quotedblleft" unicode="&#x201c;" horiz-adv-x="682" 
 />
    <glyph glyph-name="quotedblright" unicode="&#x201d;" horiz-adv-x="682" 
 />
    <glyph glyph-name="quoteleft" unicode="&#x2018;" horiz-adv-x="432" 
 />
    <glyph glyph-name="quoteright" unicode="&#x2019;" horiz-adv-x="455" 
 />
    <glyph glyph-name="divide" unicode="&#xf7;" horiz-adv-x="1124" 
 />
    <glyph glyph-name="lozenge" unicode="&#x25ca;" horiz-adv-x="1012" 
 />
    <glyph glyph-name="ydieresis" unicode="&#xff;" horiz-adv-x="1024" 
 />
    <glyph glyph-name="Ydieresis" unicode="&#x178;" horiz-adv-x="1366" 
 />
    <glyph glyph-name="fraction" unicode="&#x2044;" horiz-adv-x="342" 
 />
    <glyph glyph-name="fraction" unicode="&#x2215;" horiz-adv-x="342" 
 />
    <glyph glyph-name="Euro" unicode="&#x20ac;" 
 />
    <glyph glyph-name="guilsinglleft" unicode="&#x2039;" horiz-adv-x="682" 
 />
    <glyph glyph-name="guilsinglright" unicode="&#x203a;" horiz-adv-x="682" 
 />
    <glyph glyph-name="uniF001" unicode="&#xf001;" horiz-adv-x="1024" 
 />
    <glyph glyph-name="uniF001" unicode="&#xfb01;" horiz-adv-x="1024" 
 />
    <glyph glyph-name="uniF002" unicode="&#xf002;" horiz-adv-x="1024" 
 />
    <glyph glyph-name="uniF002" unicode="&#xfb02;" horiz-adv-x="1024" 
 />
    <glyph glyph-name="daggerdbl" unicode="&#x2021;" 
 />
    <glyph glyph-name="periodcentered" unicode="&#xb7;" horiz-adv-x="569" 
 />
    <glyph glyph-name="periodcentered" unicode="&#x2219;" horiz-adv-x="569" 
 />
    <glyph glyph-name="quotesinglbase" unicode="&#x201a;" horiz-adv-x="455" 
 />
    <glyph glyph-name="quotedblbase" unicode="&#x201e;" horiz-adv-x="682" 
 />
    <glyph glyph-name="perthousand" unicode="&#x2030;" horiz-adv-x="2048" 
 />
    <glyph glyph-name="Acircumflex" unicode="&#xc2;" horiz-adv-x="1366" 
 />
    <glyph glyph-name="Ecircumflex" unicode="&#xca;" horiz-adv-x="1366" 
 />
    <glyph glyph-name="Aacute" unicode="&#xc1;" horiz-adv-x="1366" 
 />
    <glyph glyph-name="Edieresis" unicode="&#xcb;" horiz-adv-x="1366" 
 />
    <glyph glyph-name="Egrave" unicode="&#xc8;" horiz-adv-x="1366" 
 />
    <glyph glyph-name="Iacute" unicode="&#xcd;" horiz-adv-x="569" 
 />
    <glyph glyph-name="Icircumflex" unicode="&#xce;" horiz-adv-x="569" 
 />
    <glyph glyph-name="Idieresis" unicode="&#xcf;" horiz-adv-x="569" 
 />
    <glyph glyph-name="Igrave" unicode="&#xcc;" horiz-adv-x="569" 
 />
    <glyph glyph-name="Oacute" unicode="&#xd3;" horiz-adv-x="1593" 
 />
    <glyph glyph-name="Ocircumflex" unicode="&#xd4;" horiz-adv-x="1593" 
 />
    <glyph glyph-name="Ograve" unicode="&#xd2;" horiz-adv-x="1593" 
 />
    <glyph glyph-name="Uacute" unicode="&#xda;" horiz-adv-x="1479" 
 />
    <glyph glyph-name="Ucircumflex" unicode="&#xdb;" horiz-adv-x="1479" 
 />
    <glyph glyph-name="Ugrave" unicode="&#xd9;" horiz-adv-x="1479" 
 />
    <glyph glyph-name="dotlessi" unicode="&#x131;" horiz-adv-x="569" 
 />
    <glyph glyph-name="circumflex" unicode="&#x2c6;" horiz-adv-x="682" 
 />
    <glyph glyph-name="tilde" unicode="&#x2dc;" horiz-adv-x="682" 
 />
    <glyph glyph-name="uni02C9" unicode="&#x2c9;" horiz-adv-x="682" 
 />
    <glyph glyph-name="breve" unicode="&#x2d8;" horiz-adv-x="682" 
 />
    <glyph glyph-name="dotaccent" unicode="&#x2d9;" horiz-adv-x="682" 
 />
    <glyph glyph-name="ring" unicode="&#x2da;" horiz-adv-x="682" 
 />
    <glyph glyph-name="cedilla" unicode="&#xb8;" horiz-adv-x="682" 
 />
    <glyph glyph-name="hungarumlaut" unicode="&#x2dd;" horiz-adv-x="682" 
 />
    <glyph glyph-name="ogonek" unicode="&#x2db;" horiz-adv-x="682" 
 />
    <glyph glyph-name="caron" unicode="&#x2c7;" horiz-adv-x="682" 
 />
    <glyph glyph-name="Lslash" unicode="&#x141;" 
 />
    <glyph glyph-name="lslash" unicode="&#x142;" horiz-adv-x="455" 
 />
    <glyph glyph-name="Scaron" unicode="&#x160;" horiz-adv-x="1366" 
 />
    <glyph glyph-name="scaron" unicode="&#x161;" horiz-adv-x="1024" 
 />
    <glyph glyph-name="Zcaron" unicode="&#x17d;" horiz-adv-x="1251" 
 />
    <glyph glyph-name="zcaron" unicode="&#x17e;" horiz-adv-x="1024" 
 />
    <glyph glyph-name="brokenbar" unicode="&#xa6;" horiz-adv-x="532" 
 />
    <glyph glyph-name="Eth" unicode="&#xd0;" horiz-adv-x="1479" 
 />
    <glyph glyph-name="eth" unicode="&#xf0;" 
 />
    <glyph glyph-name="Yacute" unicode="&#xdd;" horiz-adv-x="1366" 
 />
    <glyph glyph-name="yacute" unicode="&#xfd;" horiz-adv-x="1024" 
 />
    <glyph glyph-name="Thorn" unicode="&#xde;" horiz-adv-x="1366" 
 />
    <glyph glyph-name="thorn" unicode="&#xfe;" 
 />
    <glyph glyph-name="minus" unicode="&#x2212;" horiz-adv-x="1196" 
 />
    <glyph glyph-name="multiply" unicode="&#xd7;" horiz-adv-x="1196" 
 />
    <glyph glyph-name="uni00B9" unicode="&#xb9;" horiz-adv-x="682" 
 />
    <glyph glyph-name="uni00B2" unicode="&#xb2;" horiz-adv-x="682" 
 />
    <glyph glyph-name="uni00B3" unicode="&#xb3;" horiz-adv-x="682" 
 />
    <glyph glyph-name="onehalf" unicode="&#xbd;" horiz-adv-x="1708" 
 />
    <glyph glyph-name="onequarter" unicode="&#xbc;" horiz-adv-x="1708" 
 />
    <glyph glyph-name="threequarters" unicode="&#xbe;" horiz-adv-x="1708" 
 />
    <glyph glyph-name="franc" unicode="&#x20a3;" 
 />
    <glyph glyph-name="Gbreve" unicode="&#x11e;" horiz-adv-x="1593" 
 />
    <glyph glyph-name="gbreve" unicode="&#x11f;" 
 />
    <glyph glyph-name="Idotaccent" unicode="&#x130;" horiz-adv-x="569" 
 />
    <glyph glyph-name="Scedilla" unicode="&#x15e;" horiz-adv-x="1366" 
 />
    <glyph glyph-name="scedilla" unicode="&#x15f;" horiz-adv-x="1024" 
 />
    <glyph glyph-name="Cacute" unicode="&#x106;" horiz-adv-x="1479" 
 />
    <glyph glyph-name="cacute" unicode="&#x107;" horiz-adv-x="1024" 
 />
    <glyph glyph-name="Ccaron" unicode="&#x10c;" horiz-adv-x="1479" 
 />
    <glyph glyph-name="ccaron" unicode="&#x10d;" horiz-adv-x="1024" 
 />
    <glyph glyph-name="dcroat" unicode="&#x111;" 
 />
    <glyph glyph-name="currency" unicode="&#xa4;" 
 />
    <glyph glyph-name="macron" unicode="&#xaf;" horiz-adv-x="1131" 
 />
    <glyph glyph-name="Amacron" unicode="&#x100;" horiz-adv-x="1366" 
 />
    <glyph glyph-name="amacron" unicode="&#x101;" 
 />
    <glyph glyph-name="Abreve" unicode="&#x102;" horiz-adv-x="1366" 
 />
    <glyph glyph-name="abreve" unicode="&#x103;" 
 />
    <glyph glyph-name="Aogonek" unicode="&#x104;" horiz-adv-x="1366" 
 />
    <glyph glyph-name="aogonek" unicode="&#x105;" 
 />
    <glyph glyph-name="Ccircumflex" unicode="&#x108;" horiz-adv-x="1479" 
 />
    <glyph glyph-name="ccircumflex" unicode="&#x109;" horiz-adv-x="1024" 
 />
    <glyph glyph-name="Cdotaccent" unicode="&#x10a;" horiz-adv-x="1479" 
 />
    <glyph glyph-name="cdotaccent" unicode="&#x10b;" horiz-adv-x="1024" 
 />
    <glyph glyph-name="Dcaron" unicode="&#x10e;" horiz-adv-x="1479" 
 />
    <glyph glyph-name="dcaron" unicode="&#x10f;" horiz-adv-x="1259" 
 />
    <glyph glyph-name="Dcroat" unicode="&#x110;" horiz-adv-x="1479" 
 />
    <glyph glyph-name="Emacron" unicode="&#x112;" horiz-adv-x="1366" 
 />
    <glyph glyph-name="emacron" unicode="&#x113;" 
 />
    <glyph glyph-name="Ebreve" unicode="&#x114;" horiz-adv-x="1366" 
 />
    <glyph glyph-name="ebreve" unicode="&#x115;" 
 />
    <glyph glyph-name="Edotaccent" unicode="&#x116;" horiz-adv-x="1366" 
 />
    <glyph glyph-name="edotaccent" unicode="&#x117;" 
 />
    <glyph glyph-name="Eogonek" unicode="&#x118;" horiz-adv-x="1366" 
 />
    <glyph glyph-name="eogonek" unicode="&#x119;" 
 />
    <glyph glyph-name="Ecaron" unicode="&#x11a;" horiz-adv-x="1366" 
 />
    <glyph glyph-name="ecaron" unicode="&#x11b;" 
 />
    <glyph glyph-name="Gcircumflex" unicode="&#x11c;" horiz-adv-x="1593" 
 />
    <glyph glyph-name="gcircumflex" unicode="&#x11d;" 
 />
    <glyph glyph-name="Gdotaccent" unicode="&#x120;" horiz-adv-x="1593" 
 />
    <glyph glyph-name="gdotaccent" unicode="&#x121;" 
 />
    <glyph glyph-name="Gcommaaccent" unicode="&#x122;" horiz-adv-x="1593" 
 />
    <glyph glyph-name="gcommaaccent" unicode="&#x123;" 
 />
    <glyph glyph-name="Hcircumflex" unicode="&#x124;" horiz-adv-x="1479" 
 />
    <glyph glyph-name="hcircumflex" unicode="&#x125;" 
 />
    <glyph glyph-name="Hbar" unicode="&#x126;" horiz-adv-x="1479" 
 />
    <glyph glyph-name="hbar" unicode="&#x127;" 
 />
    <glyph glyph-name="Itilde" unicode="&#x128;" horiz-adv-x="569" 
 />
    <glyph glyph-name="itilde" unicode="&#x129;" horiz-adv-x="569" 
 />
    <glyph glyph-name="Imacron" unicode="&#x12a;" horiz-adv-x="569" 
 />
    <glyph glyph-name="imacron" unicode="&#x12b;" horiz-adv-x="569" 
 />
    <glyph glyph-name="Ibreve" unicode="&#x12c;" horiz-adv-x="569" 
 />
    <glyph glyph-name="ibreve" unicode="&#x12d;" horiz-adv-x="569" 
 />
    <glyph glyph-name="Iogonek" unicode="&#x12e;" horiz-adv-x="569" 
 />
    <glyph glyph-name="iogonek" unicode="&#x12f;" horiz-adv-x="455" 
 />
    <glyph glyph-name="IJ" unicode="&#x132;" horiz-adv-x="1505" 
 />
    <glyph glyph-name="ij" unicode="&#x133;" horiz-adv-x="909" 
 />
    <glyph glyph-name="Jcircumflex" unicode="&#x134;" horiz-adv-x="1024" 
 />
    <glyph glyph-name="jcircumflex" unicode="&#x135;" horiz-adv-x="455" 
 />
    <glyph glyph-name="Kcommaaccent" unicode="&#x136;" horiz-adv-x="1366" 
 />
    <glyph glyph-name="kcommaaccent" unicode="&#x137;" horiz-adv-x="1024" 
 />
    <glyph glyph-name="kgreenlandic" unicode="&#x138;" horiz-adv-x="1024" 
 />
    <glyph glyph-name="Lacute" unicode="&#x139;" 
 />
    <glyph glyph-name="lacute" unicode="&#x13a;" horiz-adv-x="455" 
 />
    <glyph glyph-name="Lcommaaccent" unicode="&#x13b;" 
 />
    <glyph glyph-name="lcommaaccent" unicode="&#x13c;" horiz-adv-x="455" 
 />
    <glyph glyph-name="Lcaron" unicode="&#x13d;" 
 />
    <glyph glyph-name="lcaron" unicode="&#x13e;" horiz-adv-x="597" 
 />
    <glyph glyph-name="Ldot" unicode="&#x13f;" 
 />
    <glyph glyph-name="ldot" unicode="&#x140;" horiz-adv-x="684" 
 />
    <glyph glyph-name="Nacute" unicode="&#x143;" horiz-adv-x="1479" 
 />
    <glyph glyph-name="nacute" unicode="&#x144;" 
 />
    <glyph glyph-name="Ncommaaccent" unicode="&#x145;" horiz-adv-x="1479" 
 />
    <glyph glyph-name="ncommaaccent" unicode="&#x146;" 
 />
    <glyph glyph-name="Ncaron" unicode="&#x147;" horiz-adv-x="1479" 
 />
    <glyph glyph-name="ncaron" unicode="&#x148;" 
 />
    <glyph glyph-name="napostrophe" unicode="&#x149;" horiz-adv-x="1237" 
 />
    <glyph glyph-name="Eng" unicode="&#x14a;" horiz-adv-x="1481" 
 />
    <glyph glyph-name="eng" unicode="&#x14b;" 
 />
    <glyph glyph-name="Omacron" unicode="&#x14c;" horiz-adv-x="1593" 
 />
    <glyph glyph-name="omacron" unicode="&#x14d;" 
 />
    <glyph glyph-name="Obreve" unicode="&#x14e;" horiz-adv-x="1593" 
 />
    <glyph glyph-name="obreve" unicode="&#x14f;" 
 />
    <glyph glyph-name="Ohungarumlaut" unicode="&#x150;" horiz-adv-x="1593" 
 />
    <glyph glyph-name="ohungarumlaut" unicode="&#x151;" 
 />
    <glyph glyph-name="Racute" unicode="&#x154;" horiz-adv-x="1479" 
 />
    <glyph glyph-name="racute" unicode="&#x155;" horiz-adv-x="682" 
 />
    <glyph glyph-name="Rcommaaccent" unicode="&#x156;" horiz-adv-x="1479" 
 />
    <glyph glyph-name="rcommaaccent" unicode="&#x157;" horiz-adv-x="682" 
 />
    <glyph glyph-name="Rcaron" unicode="&#x158;" horiz-adv-x="1479" 
 />
    <glyph glyph-name="rcaron" unicode="&#x159;" horiz-adv-x="682" 
 />
    <glyph glyph-name="Sacute" unicode="&#x15a;" horiz-adv-x="1366" 
 />
    <glyph glyph-name="sacute" unicode="&#x15b;" horiz-adv-x="1024" 
 />
    <glyph glyph-name="Scircumflex" unicode="&#x15c;" horiz-adv-x="1366" 
 />
    <glyph glyph-name="scircumflex" unicode="&#x15d;" horiz-adv-x="1024" 
 />
    <glyph glyph-name="Tcommaaccent" unicode="&#x162;" horiz-adv-x="1251" 
 />
    <glyph glyph-name="tcommaaccent" unicode="&#x163;" horiz-adv-x="569" 
 />
    <glyph glyph-name="Tcaron" unicode="&#x164;" horiz-adv-x="1251" 
 />
    <glyph glyph-name="tcaron" unicode="&#x165;" horiz-adv-x="768" 
 />
    <glyph glyph-name="Tbar" unicode="&#x166;" horiz-adv-x="1251" 
 />
    <glyph glyph-name="tbar" unicode="&#x167;" horiz-adv-x="569" 
 />
    <glyph glyph-name="Utilde" unicode="&#x168;" horiz-adv-x="1479" 
 />
    <glyph glyph-name="utilde" unicode="&#x169;" 
 />
    <glyph glyph-name="Umacron" unicode="&#x16a;" horiz-adv-x="1479" 
 />
    <glyph glyph-name="umacron" unicode="&#x16b;" 
 />
    <glyph glyph-name="Ubreve" unicode="&#x16c;" horiz-adv-x="1479" 
 />
    <glyph glyph-name="ubreve" unicode="&#x16d;" 
 />
    <glyph glyph-name="Uring" unicode="&#x16e;" horiz-adv-x="1479" 
 />
    <glyph glyph-name="uring" unicode="&#x16f;" 
 />
    <glyph glyph-name="Uhungarumlaut" unicode="&#x170;" horiz-adv-x="1479" 
 />
    <glyph glyph-name="uhungarumlaut" unicode="&#x171;" 
 />
    <glyph glyph-name="Uogonek" unicode="&#x172;" horiz-adv-x="1479" 
 />
    <glyph glyph-name="uogonek" unicode="&#x173;" 
 />
    <glyph glyph-name="Wcircumflex" unicode="&#x174;" horiz-adv-x="1933" 
 />
    <glyph glyph-name="wcircumflex" unicode="&#x175;" horiz-adv-x="1479" 
 />
    <glyph glyph-name="Ycircumflex" unicode="&#x176;" horiz-adv-x="1366" 
 />
    <glyph glyph-name="ycircumflex" unicode="&#x177;" horiz-adv-x="1024" 
 />
    <glyph glyph-name="Zacute" unicode="&#x179;" horiz-adv-x="1251" 
 />
    <glyph glyph-name="zacute" unicode="&#x17a;" horiz-adv-x="1024" 
 />
    <glyph glyph-name="Zdotaccent" unicode="&#x17b;" horiz-adv-x="1251" 
 />
    <glyph glyph-name="zdotaccent" unicode="&#x17c;" horiz-adv-x="1024" 
 />
    <glyph glyph-name="longs" unicode="&#x17f;" horiz-adv-x="455" 
 />
    <glyph glyph-name="Aringacute" unicode="&#x1fa;" horiz-adv-x="1366" 
 />
    <glyph glyph-name="aringacute" unicode="&#x1fb;" 
 />
    <glyph glyph-name="AEacute" unicode="&#x1fc;" horiz-adv-x="2048" 
 />
    <glyph glyph-name="aeacute" unicode="&#x1fd;" horiz-adv-x="1821" 
 />
    <glyph glyph-name="Oslashacute" unicode="&#x1fe;" horiz-adv-x="1593" 
 />
    <glyph glyph-name="oslashacute" unicode="&#x1ff;" horiz-adv-x="1251" 
 />
    <glyph glyph-name="tonos" unicode="&#x384;" horiz-adv-x="682" 
 />
    <glyph glyph-name="dieresistonos" unicode="&#x385;" horiz-adv-x="682" 
 />
    <glyph glyph-name="Alphatonos" unicode="&#x386;" horiz-adv-x="1367" 
 />
    <glyph glyph-name="anoteleia" unicode="&#x387;" horiz-adv-x="569" 
 />
    <glyph glyph-name="Epsilontonos" unicode="&#x388;" horiz-adv-x="1606" 
 />
    <glyph glyph-name="Etatonos" unicode="&#x389;" horiz-adv-x="1716" 
 />
    <glyph glyph-name="Iotatonos" unicode="&#x38a;" horiz-adv-x="786" 
 />
    <glyph glyph-name="Omicrontonos" unicode="&#x38c;" horiz-adv-x="1586" 
 />
    <glyph glyph-name="Upsilontonos" unicode="&#x38e;" horiz-adv-x="1752" 
 />
    <glyph glyph-name="Omegatonos" unicode="&#x38f;" horiz-adv-x="1541" 
 />
    <glyph glyph-name="iotadieresistonos" unicode="&#x390;" horiz-adv-x="455" 
 />
    <glyph glyph-name="Alpha" unicode="&#x391;" horiz-adv-x="1366" 
 />
    <glyph glyph-name="Beta" unicode="&#x392;" horiz-adv-x="1366" 
 />
    <glyph glyph-name="Gamma" unicode="&#x393;" horiz-adv-x="1128" 
 />
    <glyph glyph-name="uni0394" unicode="&#x394;" horiz-adv-x="1368" 
 />
    <glyph glyph-name="Epsilon" unicode="&#x395;" horiz-adv-x="1366" 
 />
    <glyph glyph-name="Zeta" unicode="&#x396;" horiz-adv-x="1251" 
 />
    <glyph glyph-name="Eta" unicode="&#x397;" horiz-adv-x="1479" 
 />
    <glyph glyph-name="Theta" unicode="&#x398;" horiz-adv-x="1593" 
 />
    <glyph glyph-name="Iota" unicode="&#x399;" horiz-adv-x="569" 
 />
    <glyph glyph-name="Kappa" unicode="&#x39a;" horiz-adv-x="1366" 
 />
    <glyph glyph-name="Lambda" unicode="&#x39b;" horiz-adv-x="1368" 
 />
    <glyph glyph-name="Mu" unicode="&#x39c;" horiz-adv-x="1706" 
 />
    <glyph glyph-name="Nu" unicode="&#x39d;" horiz-adv-x="1479" 
 />
    <glyph glyph-name="Xi" unicode="&#x39e;" horiz-adv-x="1331" 
 />
    <glyph glyph-name="Omicron" unicode="&#x39f;" horiz-adv-x="1593" 
 />
    <glyph glyph-name="Pi" unicode="&#x3a0;" horiz-adv-x="1479" 
 />
    <glyph glyph-name="Rho" unicode="&#x3a1;" horiz-adv-x="1366" 
 />
    <glyph glyph-name="Sigma" unicode="&#x3a3;" horiz-adv-x="1266" 
 />
    <glyph glyph-name="Tau" unicode="&#x3a4;" horiz-adv-x="1251" 
 />
    <glyph glyph-name="Upsilon" unicode="&#x3a5;" horiz-adv-x="1366" 
 />
    <glyph glyph-name="Phi" unicode="&#x3a6;" horiz-adv-x="1634" 
 />
    <glyph glyph-name="Chi" unicode="&#x3a7;" horiz-adv-x="1366" 
 />
    <glyph glyph-name="Psi" unicode="&#x3a8;" horiz-adv-x="1711" 
 />
    <glyph glyph-name="uni03A9" unicode="&#x3a9;" horiz-adv-x="1531" 
 />
    <glyph glyph-name="Iotadieresis" unicode="&#x3aa;" horiz-adv-x="569" 
 />
    <glyph glyph-name="Upsilondieresis" unicode="&#x3ab;" horiz-adv-x="1366" 
 />
    <glyph glyph-name="alphatonos" unicode="&#x3ac;" horiz-adv-x="1184" 
 />
    <glyph glyph-name="epsilontonos" unicode="&#x3ad;" horiz-adv-x="913" 
 />
    <glyph glyph-name="etatonos" unicode="&#x3ae;" 
 />
    <glyph glyph-name="iotatonos" unicode="&#x3af;" horiz-adv-x="455" 
 />
    <glyph glyph-name="upsilondieresistonos" unicode="&#x3b0;" horiz-adv-x="1120" 
 />
    <glyph glyph-name="alpha" unicode="&#x3b1;" horiz-adv-x="1184" 
 />
    <glyph glyph-name="beta" unicode="&#x3b2;" horiz-adv-x="1178" 
 />
    <glyph glyph-name="gamma" unicode="&#x3b3;" horiz-adv-x="1024" 
 />
    <glyph glyph-name="delta" unicode="&#x3b4;" horiz-adv-x="1140" 
 />
    <glyph glyph-name="epsilon" unicode="&#x3b5;" horiz-adv-x="913" 
 />
    <glyph glyph-name="zeta" unicode="&#x3b6;" horiz-adv-x="903" 
 />
    <glyph glyph-name="eta" unicode="&#x3b7;" 
 />
    <glyph glyph-name="theta" unicode="&#x3b8;" 
 />
    <glyph glyph-name="iota" unicode="&#x3b9;" horiz-adv-x="455" 
 />
    <glyph glyph-name="kappa" unicode="&#x3ba;" horiz-adv-x="1024" 
 />
    <glyph glyph-name="lambda" unicode="&#x3bb;" horiz-adv-x="1024" 
 />
    <glyph glyph-name="uni03BC" unicode="&#x3bc;" horiz-adv-x="1180" 
 />
    <glyph glyph-name="nu" unicode="&#x3bd;" horiz-adv-x="1024" 
 />
    <glyph glyph-name="xi" unicode="&#x3be;" horiz-adv-x="917" 
 />
    <glyph glyph-name="omicron" unicode="&#x3bf;" 
 />
    <glyph glyph-name="pi" unicode="&#x3c0;" horiz-adv-x="1413" 
 />
    <glyph glyph-name="rho" unicode="&#x3c1;" horiz-adv-x="1165" 
 />
    <glyph glyph-name="sigma1" unicode="&#x3c2;" horiz-adv-x="987" 
 />
    <glyph glyph-name="sigma" unicode="&#x3c3;" horiz-adv-x="1264" 
 />
    <glyph glyph-name="tau" unicode="&#x3c4;" horiz-adv-x="809" 
 />
    <glyph glyph-name="upsilon" unicode="&#x3c5;" horiz-adv-x="1120" 
 />
    <glyph glyph-name="phi" unicode="&#x3c6;" horiz-adv-x="1328" 
 />
    <glyph glyph-name="chi" unicode="&#x3c7;" horiz-adv-x="1075" 
 />
    <glyph glyph-name="psi" unicode="&#x3c8;" horiz-adv-x="1460" 
 />
    <glyph glyph-name="omega" unicode="&#x3c9;" horiz-adv-x="1599" 
 />
    <glyph glyph-name="iotadieresis" unicode="&#x3ca;" horiz-adv-x="455" 
 />
    <glyph glyph-name="upsilondieresis" unicode="&#x3cb;" horiz-adv-x="1120" 
 />
    <glyph glyph-name="omicrontonos" unicode="&#x3cc;" 
 />
    <glyph glyph-name="upsilontonos" unicode="&#x3cd;" horiz-adv-x="1120" 
 />
    <glyph glyph-name="omegatonos" unicode="&#x3ce;" horiz-adv-x="1599" 
 />
    <glyph glyph-name="afii10023" unicode="&#x401;" horiz-adv-x="1367" 
 />
    <glyph glyph-name="afii10051" unicode="&#x402;" horiz-adv-x="1771" 
 />
    <glyph glyph-name="afii10052" unicode="&#x403;" horiz-adv-x="1109" 
 />
    <glyph glyph-name="afii10053" unicode="&#x404;" horiz-adv-x="1472" 
 />
    <glyph glyph-name="afii10054" unicode="&#x405;" horiz-adv-x="1366" 
 />
    <glyph glyph-name="afii10055" unicode="&#x406;" horiz-adv-x="569" 
 />
    <glyph glyph-name="afii10056" unicode="&#x407;" horiz-adv-x="569" 
 />
    <glyph glyph-name="afii10057" unicode="&#x408;" horiz-adv-x="1024" 
 />
    <glyph glyph-name="afii10058" unicode="&#x409;" horiz-adv-x="2165" 
 />
    <glyph glyph-name="afii10059" unicode="&#x40a;" horiz-adv-x="2069" 
 />
    <glyph glyph-name="afii10060" unicode="&#x40b;" horiz-adv-x="1749" 
 />
    <glyph glyph-name="afii10061" unicode="&#x40c;" horiz-adv-x="1193" 
 />
    <glyph glyph-name="afii10062" unicode="&#x40e;" horiz-adv-x="1301" 
 />
    <glyph glyph-name="afii10145" unicode="&#x40f;" horiz-adv-x="1472" 
 />
    <glyph glyph-name="afii10017" unicode="&#x410;" horiz-adv-x="1366" 
 />
    <glyph glyph-name="afii10018" unicode="&#x411;" horiz-adv-x="1344" 
 />
    <glyph glyph-name="afii10019" unicode="&#x412;" horiz-adv-x="1366" 
 />
    <glyph glyph-name="afii10020" unicode="&#x413;" horiz-adv-x="1109" 
 />
    <glyph glyph-name="afii10021" unicode="&#x414;" horiz-adv-x="1387" 
 />
    <glyph glyph-name="afii10022" unicode="&#x415;" horiz-adv-x="1366" 
 />
    <glyph glyph-name="afii10024" unicode="&#x416;" horiz-adv-x="1891" 
 />
    <glyph glyph-name="afii10025" unicode="&#x417;" horiz-adv-x="1237" 
 />
    <glyph glyph-name="afii10026" unicode="&#x418;" horiz-adv-x="1472" 
 />
    <glyph glyph-name="afii10027" unicode="&#x419;" horiz-adv-x="1472" 
 />
    <glyph glyph-name="afii10028" unicode="&#x41a;" horiz-adv-x="1193" 
 />
    <glyph glyph-name="afii10029" unicode="&#x41b;" horiz-adv-x="1344" 
 />
    <glyph glyph-name="afii10030" unicode="&#x41c;" horiz-adv-x="1706" 
 />
    <glyph glyph-name="afii10031" unicode="&#x41d;" horiz-adv-x="1479" 
 />
    <glyph glyph-name="afii10032" unicode="&#x41e;" horiz-adv-x="1593" 
 />
    <glyph glyph-name="afii10033" unicode="&#x41f;" horiz-adv-x="1472" 
 />
    <glyph glyph-name="afii10034" unicode="&#x420;" horiz-adv-x="1366" 
 />
    <glyph glyph-name="afii10035" unicode="&#x421;" horiz-adv-x="1479" 
 />
    <glyph glyph-name="afii10036" unicode="&#x422;" horiz-adv-x="1251" 
 />
    <glyph glyph-name="afii10037" unicode="&#x423;" horiz-adv-x="1301" 
 />
    <glyph glyph-name="afii10038" unicode="&#x424;" horiz-adv-x="1557" 
 />
    <glyph glyph-name="afii10039" unicode="&#x425;" horiz-adv-x="1366" 
 />
    <glyph glyph-name="afii10040" unicode="&#x426;" horiz-adv-x="1515" 
 />
    <glyph glyph-name="afii10041" unicode="&#x427;" horiz-adv-x="1365" 
 />
    <glyph glyph-name="afii10042" unicode="&#x428;" horiz-adv-x="1877" 
 />
    <glyph glyph-name="afii10043" unicode="&#x429;" horiz-adv-x="1920" 
 />
    <glyph glyph-name="afii10044" unicode="&#x42a;" horiz-adv-x="1621" 
 />
    <glyph glyph-name="afii10045" unicode="&#x42b;" horiz-adv-x="1813" 
 />
    <glyph glyph-name="afii10046" unicode="&#x42c;" horiz-adv-x="1344" 
 />
    <glyph glyph-name="afii10047" unicode="&#x42d;" horiz-adv-x="1472" 
 />
    <glyph glyph-name="afii10048" unicode="&#x42e;" horiz-adv-x="2069" 
 />
    <glyph glyph-name="afii10049" unicode="&#x42f;" horiz-adv-x="1479" 
 />
    <glyph glyph-name="afii10065" unicode="&#x430;" 
 />
    <glyph glyph-name="afii10066" unicode="&#x431;" horiz-adv-x="1173" 
 />
    <glyph glyph-name="afii10067" unicode="&#x432;" horiz-adv-x="1088" 
 />
    <glyph glyph-name="afii10068" unicode="&#x433;" horiz-adv-x="747" 
 />
    <glyph glyph-name="afii10069" unicode="&#x434;" horiz-adv-x="1195" 
 />
    <glyph glyph-name="afii10070" unicode="&#x435;" 
 />
    <glyph glyph-name="afii10072" unicode="&#x436;" horiz-adv-x="1370" 
 />
    <glyph glyph-name="afii10073" unicode="&#x437;" horiz-adv-x="939" 
 />
    <glyph glyph-name="afii10074" unicode="&#x438;" horiz-adv-x="1144" 
 />
    <glyph glyph-name="afii10075" unicode="&#x439;" horiz-adv-x="1144" 
 />
    <glyph glyph-name="afii10076" unicode="&#x43a;" horiz-adv-x="896" 
 />
    <glyph glyph-name="afii10077" unicode="&#x43b;" horiz-adv-x="1195" 
 />
    <glyph glyph-name="afii10078" unicode="&#x43c;" horiz-adv-x="1408" 
 />
    <glyph glyph-name="afii10079" unicode="&#x43d;" horiz-adv-x="1131" 
 />
    <glyph glyph-name="afii10080" unicode="&#x43e;" 
 />
    <glyph glyph-name="afii10081" unicode="&#x43f;" horiz-adv-x="1109" 
 />
    <glyph glyph-name="afii10082" unicode="&#x440;" 
 />
    <glyph glyph-name="afii10083" unicode="&#x441;" horiz-adv-x="1024" 
 />
    <glyph glyph-name="afii10084" unicode="&#x442;" horiz-adv-x="938" 
 />
    <glyph glyph-name="afii10085" unicode="&#x443;" horiz-adv-x="1024" 
 />
    <glyph glyph-name="afii10086" unicode="&#x444;" horiz-adv-x="1685" 
 />
    <glyph glyph-name="afii10087" unicode="&#x445;" horiz-adv-x="1024" 
 />
    <glyph glyph-name="afii10088" unicode="&#x446;" horiz-adv-x="1173" 
 />
    <glyph glyph-name="afii10089" unicode="&#x447;" horiz-adv-x="1067" 
 />
    <glyph glyph-name="afii10090" unicode="&#x448;" horiz-adv-x="1643" 
 />
    <glyph glyph-name="afii10091" unicode="&#x449;" horiz-adv-x="1685" 
 />
    <glyph glyph-name="afii10092" unicode="&#x44a;" horiz-adv-x="1280" 
 />
    <glyph glyph-name="afii10093" unicode="&#x44b;" horiz-adv-x="1472" 
 />
    <glyph glyph-name="afii10094" unicode="&#x44c;" horiz-adv-x="1067" 
 />
    <glyph glyph-name="afii10095" unicode="&#x44d;" horiz-adv-x="1045" 
 />
    <glyph glyph-name="afii10096" unicode="&#x44e;" horiz-adv-x="1536" 
 />
    <glyph glyph-name="afii10097" unicode="&#x44f;" horiz-adv-x="1109" 
 />
    <glyph glyph-name="afii10071" unicode="&#x451;" 
 />
    <glyph glyph-name="afii10099" unicode="&#x452;" 
 />
    <glyph glyph-name="afii10100" unicode="&#x453;" horiz-adv-x="747" 
 />
    <glyph glyph-name="afii10101" unicode="&#x454;" horiz-adv-x="1045" 
 />
    <glyph glyph-name="afii10102" unicode="&#x455;" horiz-adv-x="1024" 
 />
    <glyph glyph-name="afii10103" unicode="&#x456;" horiz-adv-x="455" 
 />
    <glyph glyph-name="afii10104" unicode="&#x457;" horiz-adv-x="569" 
 />
    <glyph glyph-name="afii10105" unicode="&#x458;" horiz-adv-x="455" 
 />
    <glyph glyph-name="afii10106" unicode="&#x459;" horiz-adv-x="1856" 
 />
    <glyph glyph-name="afii10107" unicode="&#x45a;" horiz-adv-x="1664" 
 />
    <glyph glyph-name="afii10108" unicode="&#x45b;" 
 />
    <glyph glyph-name="afii10109" unicode="&#x45c;" horiz-adv-x="896" 
 />
    <glyph glyph-name="afii10110" unicode="&#x45e;" horiz-adv-x="1024" 
 />
    <glyph glyph-name="afii10193" unicode="&#x45f;" horiz-adv-x="1131" 
 />
    <glyph glyph-name="afii10050" unicode="&#x490;" horiz-adv-x="1001" 
 />
    <glyph glyph-name="afii10098" unicode="&#x491;" horiz-adv-x="842" 
 />
    <glyph glyph-name="Wgrave" unicode="&#x1e80;" horiz-adv-x="1933" 
 />
    <glyph glyph-name="wgrave" unicode="&#x1e81;" horiz-adv-x="1479" 
 />
    <glyph glyph-name="Wacute" unicode="&#x1e82;" horiz-adv-x="1933" 
 />
    <glyph glyph-name="wacute" unicode="&#x1e83;" horiz-adv-x="1479" 
 />
    <glyph glyph-name="Wdieresis" unicode="&#x1e84;" horiz-adv-x="1933" 
 />
    <glyph glyph-name="wdieresis" unicode="&#x1e85;" horiz-adv-x="1479" 
 />
    <glyph glyph-name="Ygrave" unicode="&#x1ef2;" horiz-adv-x="1366" 
 />
    <glyph glyph-name="ygrave" unicode="&#x1ef3;" horiz-adv-x="1024" 
 />
    <glyph glyph-name="afii00208" unicode="&#x2015;" horiz-adv-x="2048" 
 />
    <glyph glyph-name="underscoredbl" unicode="&#x2017;" horiz-adv-x="1131" 
 />
    <glyph glyph-name="quotereversed" unicode="&#x201b;" horiz-adv-x="455" 
 />
    <glyph glyph-name="minute" unicode="&#x2032;" horiz-adv-x="384" 
 />
    <glyph glyph-name="second" unicode="&#x2033;" horiz-adv-x="725" 
 />
    <glyph glyph-name="exclamdbl" unicode="&#x203c;" horiz-adv-x="1024" 
 />
    <glyph glyph-name="uni203E" unicode="&#x203e;" horiz-adv-x="682" 
 />
    <glyph glyph-name="uni207F" unicode="&#x207f;" horiz-adv-x="747" 
 />
    <glyph glyph-name="lira" unicode="&#x20a4;" 
 />
    <glyph glyph-name="peseta" unicode="&#x20a7;" horiz-adv-x="2240" 
 />
    <glyph glyph-name="afii61248" unicode="&#x2105;" horiz-adv-x="1813" 
 />
    <glyph glyph-name="afii61289" unicode="&#x2113;" horiz-adv-x="662" 
 />
    <glyph glyph-name="afii61352" unicode="&#x2116;" horiz-adv-x="2197" 
 />
    <glyph glyph-name="estimated" unicode="&#x212e;" horiz-adv-x="1229" 
 />
    <glyph glyph-name="oneeighth" unicode="&#x215b;" horiz-adv-x="1708" 
 />
    <glyph glyph-name="threeeighths" unicode="&#x215c;" horiz-adv-x="1708" 
 />
    <glyph glyph-name="fiveeighths" unicode="&#x215d;" horiz-adv-x="1708" 
 />
    <glyph glyph-name="seveneighths" unicode="&#x215e;" horiz-adv-x="1708" 
 />
    <glyph glyph-name="arrowleft" unicode="&#x2190;" horiz-adv-x="2048" 
 />
    <glyph glyph-name="arrowup" unicode="&#x2191;" horiz-adv-x="1024" 
 />
    <glyph glyph-name="arrowright" unicode="&#x2192;" horiz-adv-x="2048" 
 />
    <glyph glyph-name="arrowdown" unicode="&#x2193;" horiz-adv-x="1024" 
 />
    <glyph glyph-name="arrowboth" unicode="&#x2194;" horiz-adv-x="2048" 
 />
    <glyph glyph-name="arrowupdn" unicode="&#x2195;" horiz-adv-x="1024" 
 />
    <glyph glyph-name="arrowupdnbse" unicode="&#x21a8;" horiz-adv-x="1024" 
 />
    <glyph glyph-name="orthogonal" unicode="&#x221f;" horiz-adv-x="2005" 
 />
    <glyph glyph-name="intersection" unicode="&#x2229;" horiz-adv-x="1472" 
 />
    <glyph glyph-name="equivalence" unicode="&#x2261;" horiz-adv-x="1195" 
 />
    <glyph glyph-name="house" unicode="&#x2302;" horiz-adv-x="1237" 
 />
    <glyph glyph-name="revlogicalnot" unicode="&#x2310;" horiz-adv-x="1196" 
 />
    <glyph glyph-name="integraltp" unicode="&#x2320;" horiz-adv-x="1237" 
 />
    <glyph glyph-name="integralbt" unicode="&#x2321;" horiz-adv-x="1237" 
 />
    <glyph glyph-name="SF100000" unicode="&#x2500;" horiz-adv-x="1451" 
 />
    <glyph glyph-name="SF110000" unicode="&#x2502;" horiz-adv-x="1280" 
 />
    <glyph glyph-name="SF010000" unicode="&#x250c;" horiz-adv-x="1451" 
 />
    <glyph glyph-name="SF030000" unicode="&#x2510;" horiz-adv-x="1451" 
 />
    <glyph glyph-name="SF020000" unicode="&#x2514;" horiz-adv-x="1451" 
 />
    <glyph glyph-name="SF040000" unicode="&#x2518;" horiz-adv-x="1451" 
 />
    <glyph glyph-name="SF080000" unicode="&#x251c;" horiz-adv-x="1451" 
 />
    <glyph glyph-name="SF090000" unicode="&#x2524;" horiz-adv-x="1451" 
 />
    <glyph glyph-name="SF060000" unicode="&#x252c;" horiz-adv-x="1451" 
 />
    <glyph glyph-name="SF070000" unicode="&#x2534;" horiz-adv-x="1451" 
 />
    <glyph glyph-name="SF050000" unicode="&#x253c;" horiz-adv-x="1451" 
 />
    <glyph glyph-name="SF430000" unicode="&#x2550;" horiz-adv-x="1451" 
 />
    <glyph glyph-name="SF240000" unicode="&#x2551;" horiz-adv-x="1451" 
 />
    <glyph glyph-name="SF510000" unicode="&#x2552;" horiz-adv-x="1451" 
 />
    <glyph glyph-name="SF520000" unicode="&#x2553;" horiz-adv-x="1451" 
 />
    <glyph glyph-name="SF390000" unicode="&#x2554;" horiz-adv-x="1451" 
 />
    <glyph glyph-name="SF220000" unicode="&#x2555;" horiz-adv-x="1451" 
 />
    <glyph glyph-name="SF210000" unicode="&#x2556;" horiz-adv-x="1451" 
 />
    <glyph glyph-name="SF250000" unicode="&#x2557;" horiz-adv-x="1451" 
 />
    <glyph glyph-name="SF500000" unicode="&#x2558;" horiz-adv-x="1451" 
 />
    <glyph glyph-name="SF490000" unicode="&#x2559;" horiz-adv-x="1451" 
 />
    <glyph glyph-name="SF380000" unicode="&#x255a;" horiz-adv-x="1451" 
 />
    <glyph glyph-name="SF280000" unicode="&#x255b;" horiz-adv-x="1451" 
 />
    <glyph glyph-name="SF270000" unicode="&#x255c;" horiz-adv-x="1451" 
 />
    <glyph glyph-name="SF260000" unicode="&#x255d;" horiz-adv-x="1451" 
 />
    <glyph glyph-name="SF360000" unicode="&#x255e;" horiz-adv-x="1451" 
 />
    <glyph glyph-name="SF370000" unicode="&#x255f;" horiz-adv-x="1451" 
 />
    <glyph glyph-name="SF420000" unicode="&#x2560;" horiz-adv-x="1451" 
 />
    <glyph glyph-name="SF190000" unicode="&#x2561;" horiz-adv-x="1451" 
 />
    <glyph glyph-name="SF200000" unicode="&#x2562;" horiz-adv-x="1451" 
 />
    <glyph glyph-name="SF230000" unicode="&#x2563;" horiz-adv-x="1451" 
 />
    <glyph glyph-name="SF470000" unicode="&#x2564;" horiz-adv-x="1451" 
 />
    <glyph glyph-name="SF480000" unicode="&#x2565;" horiz-adv-x="1451" 
 />
    <glyph glyph-name="SF410000" unicode="&#x2566;" horiz-adv-x="1451" 
 />
    <glyph glyph-name="SF450000" unicode="&#x2567;" horiz-adv-x="1451" 
 />
    <glyph glyph-name="SF460000" unicode="&#x2568;" horiz-adv-x="1451" 
 />
    <glyph glyph-name="SF400000" unicode="&#x2569;" horiz-adv-x="1451" 
 />
    <glyph glyph-name="SF540000" unicode="&#x256a;" horiz-adv-x="1451" 
 />
    <glyph glyph-name="SF530000" unicode="&#x256b;" horiz-adv-x="1451" 
 />
    <glyph glyph-name="SF440000" unicode="&#x256c;" horiz-adv-x="1451" 
 />
    <glyph glyph-name="upblock" unicode="&#x2580;" horiz-adv-x="1451" 
 />
    <glyph glyph-name="dnblock" unicode="&#x2584;" horiz-adv-x="1451" 
 />
    <glyph glyph-name="block" unicode="&#x2588;" horiz-adv-x="1451" 
 />
    <glyph glyph-name="lfblock" unicode="&#x258c;" horiz-adv-x="1451" 
 />
    <glyph glyph-name="rtblock" unicode="&#x2590;" horiz-adv-x="1451" 
 />
    <glyph glyph-name="ltshade" unicode="&#x2591;" horiz-adv-x="1451" 
 />
    <glyph glyph-name="shade" unicode="&#x2592;" horiz-adv-x="1451" 
 />
    <glyph glyph-name="dkshade" unicode="&#x2593;" horiz-adv-x="1493" 
 />
    <glyph glyph-name="filledbox" unicode="&#x25a0;" horiz-adv-x="1237" 
 />
    <glyph glyph-name="H22073" unicode="&#x25a1;" horiz-adv-x="1237" 
 />
    <glyph glyph-name="H18543" unicode="&#x25aa;" horiz-adv-x="726" 
 />
    <glyph glyph-name="H18551" unicode="&#x25ab;" horiz-adv-x="726" 
 />
    <glyph glyph-name="filledrect" unicode="&#x25ac;" horiz-adv-x="2048" 
 />
    <glyph glyph-name="triagup" unicode="&#x25b2;" horiz-adv-x="2027" 
 />
    <glyph glyph-name="triagrt" unicode="&#x25ba;" horiz-adv-x="2027" 
 />
    <glyph glyph-name="triagdn" unicode="&#x25bc;" horiz-adv-x="2027" 
 />
    <glyph glyph-name="triaglf" unicode="&#x25c4;" horiz-adv-x="2027" 
 />
    <glyph glyph-name="circle" unicode="&#x25cb;" horiz-adv-x="1237" 
 />
    <glyph glyph-name="H18533" unicode="&#x25cf;" horiz-adv-x="1237" 
 />
    <glyph glyph-name="invbullet" unicode="&#x25d8;" horiz-adv-x="1237" 
 />
    <glyph glyph-name="invcircle" unicode="&#x25d9;" horiz-adv-x="1237" 
 />
    <glyph glyph-name="openbullet" unicode="&#x25e6;" horiz-adv-x="726" 
 />
    <glyph glyph-name="smileface" unicode="&#x263a;" horiz-adv-x="2091" 
 />
    <glyph glyph-name="invsmileface" unicode="&#x263b;" horiz-adv-x="2155" 
 />
    <glyph glyph-name="sun" unicode="&#x263c;" horiz-adv-x="1877" 
 />
    <glyph glyph-name="female" unicode="&#x2640;" horiz-adv-x="1536" 
 />
    <glyph glyph-name="male" unicode="&#x2642;" horiz-adv-x="1536" 
 />
    <glyph glyph-name="spade" unicode="&#x2660;" horiz-adv-x="1088" 
 />
    <glyph glyph-name="club" unicode="&#x2663;" horiz-adv-x="1344" 
 />
    <glyph glyph-name="heart" unicode="&#x2665;" horiz-adv-x="1216" 
 />
    <glyph glyph-name="diamond" unicode="&#x2666;" horiz-adv-x="1045" 
 />
    <glyph glyph-name="musicalnote" unicode="&#x266a;" horiz-adv-x="1024" 
 />
    <glyph glyph-name="musicalnotedbl" unicode="&#x266b;" horiz-adv-x="1536" 
 />
    <glyph glyph-name="uniF004" unicode="&#xf004;" horiz-adv-x="682" 
 />
    <glyph glyph-name="uniF005" unicode="&#xf005;" horiz-adv-x="682" 
 />
  </font>
</defs>
</svg>
