<?xml version="1.0" encoding="utf-8"?>
<!-- Generator: Adobe Illustrator 22.0.1, SVG Export Plug-In . SVG Version: 6.00 Build 0)  -->
<svg version="1.1" id="signature" xmlns="http://www.w3.org/2000/svg" xmlns:xlink="http://www.w3.org/1999/xlink" x="0px" y="0px"
	 viewBox="0 0 1366 768" style="enable-background:new 0 0 1366 768;" xml:space="preserve">
<style type="text/css">
	.st0{fill:none;stroke:#000000;stroke-width:5;stroke-linecap:round;stroke-linejoin:round;stroke-miterlimit:10;}
	.st1{fill:none;stroke:#000000;stroke-width:5;stroke-miterlimit:10;}
</style>
<path id="stroke-u" class="st0" d="M514.1,371.9c16.1-45.2,30.2-89.4,37.9-136.9c2.1,34.9-0.1,69.9,1,104.8c0.8,27.4-2,72.9,13.9,97
	c17.4,26.3,27.9-39.1,29.5-49.2c5.4-32.8,7.1-66.7,4.2-99.9c-3.5-40.4-11.8-81.2-23.4-120.1"/>
<path id="stroke-j" class="st0" d="M578,364.7c1.9-4,6.3-15.8,3.8-20.3c-3.6-6.5-5.9,1.6-2.7,2.7c4,1.4,5.6-8.8,10.4-4.4
	c1.9,1.7,0.9,8,0.9,10.4c0,6-2.4,15.7,5.2,13.4c6-1.8,19-23.8,14.5-29.3c-7.9-9.6-9.6,13.9-6.2,18.9c7.3,10.8,22.3,2.9,25.9-7.3
	c4.7-13.2-8.1-15.7-6.3-1.9c2.4,18.7,21.8,2.8,20.9-10.1c7.6,48,15.1,95.7,20.2,144c2.5,23.5,4.6,47.2,2.9,70.9
	c-0.9,12-2.3,38.6-19.4,39.5c-17,0.9-24.7-26.2-28.2-38.5c-6-21.2-7.3-43.4-7.9-65.3c-1.3-44.1,5.4-88.3,28.9-126.4"/>
<path id="stroke-s" class="st0" d="M675.5,278.5c20.8-12.3,41.6-30.4,54.3-51.1c12.4-20.3,20.9-50.4-9.8-57.7
	c-24.9-5.9-53.9,10.6-73.7,24.3c-6.8,4.7-25,15.4-27,24.1c-2.6,11.1,19.5,9.6,26.5,9.7c52.2,1,104.5-4.3,156,7.6
	c45.7,10.6,100.2,35.9,116,84.1c16.3,49.7-22,96-58.9,124.5c-40.6,31.4-86.1,55-135.9,68c-48,12.5-101,17.5-149.2,2.8
	c-42.3-12.9-102.5-45.5-93.9-98.5c8-48.9,57.6-78.9,100.9-91.7c44.9-13.3,100.7-15.7,142.9,7.1c9.1,4.9,19,11.3,26.4,18.7"/>
<path id="stroke-y" class="st0" d="M762,345c13.1,13.7,24.1-22,25.5-30.3c0.5,6.4,0.7,33.1,12.7,25.7c10.3-6.3,5.2-32.7,3.8-42.3
	c16.3,46.4,24.3,95.6,26.5,144.7c1,22.3,0.5,44.5-0.4,66.8c-0.5,12.5-0.9,45.4-19.4,45.5c-16.4,0.2-26.8-28.2-30.3-40.4
	c-5.8-20.4-5-42.1-1.4-62.8c7.4-42.5,24.8-87.1,56.7-117.2"/>
<path id="stroke-d" class="st0" d="M826.2,318.3c3.4-2.8,13.3-21.6,4.5-17.1c-5.3,2.7-4.8,21.8-1.5,25.8c12,14.9,22.1-33.6,33.2-29
	c-9.9-9.4-16.6,32.8-1.4,20.3c10.6-8.7,10.8-31.2,10.9-43.6c0.1-17.9-3.7-35.1-6.5-52.7c-2.7-16.7-5.3-33.7-9.8-50
	c5.7,30.4,10.3,61.2,16.6,91.4c6.3,30.3,14.5,60.2,21.1,90.4c3.8,17.5,7.9,34.9,12.1,52.3"/>
<path id="stroke-a" class="st0" d="M642,569.8c11.6-29.5,33.7-56.5,53-81.3c20.1-25.7,42.3-49.4,65.3-72.6
	c45.3-45.6,97-85.3,151.3-119.6c30.6-19.3,63-36.5,96-51.2"/>
<path id="stroke-end" class="st0" d="M982.2,245.9c12.6-1.8,25.2-3.6,37.9-5.4c-9,9.5-18.6,17.8-19.8,31.6"/>
<path id="dot-1" class="st1" d="M927.4,312.7c-5.9-2.7-3.1-14.3,4.1-11.7C939.3,303.8,934.4,313.2,927.4,312.7z"/>
<path id="dot-2" class="st1" d="M945.9,296.4c-3.4-6.7,3.5-13.1,9-6.5C960.1,296.2,950.5,302.4,945.9,296.4z"/>
<path id="dot-3" class="st1" d="M966.1,278.9c1.3-6,10.5-6.3,10.6,0.5C976.8,286.7,965.3,287.4,966.1,278.9z"/>
</svg>
